# xmcd
#
# Track frame offsets: 
#        150
#        23453
#        42514
#        60964
#        84325
#        108134
#        126267
#        147544
#        168293
#        189843
#        208398
#        232477
#        249497
#
# Disc length: 3597 seconds
#
# Revision: 7
# Processed by: cddbd v1.5.2PL0 Copyright (c) Steve Scherf et al.
# Submitted via: ExactAudioCopy v1.0b3
#
DISCID=b00e0b0d
DTITLE=????? - ALL SINGLES BEST  Disc 2 AUCK-18014-15
DYEAR=2007
DGENRE=JPop
TTITLE0=??????(additional track) 
TTITLE1=8???????
TTITLE2=AFFAIR
TTITLE3=SPIRIT
TTITLE4=?????
TTITLE5=?????
TTITLE6=???????
TTITLE7=?????
TTITLE8=?????
TTITLE9=????????
TTITLE10=???? 
TTITLE11=?????????????
TTITLE12=????(additional track) 
EXTD=YEAR: 2007
EXTT0=
EXTT1=
EXTT2=
EXTT3=
EXTT4=
EXTT5=
EXTT6=
EXTT7=
EXTT8=
EXTT9=
EXTT10=
EXTT11=
EXTT12=
PLAYORDER=
